,note,start_time,duration,velocity,tempo
0,F#5,3.75,0.25,100,250
1,B4,4,0.25,100,250
2,D5,4.25,0.25,100,250
3,F#5,4.5,0.25,100,250
4,B5,4.75,0.25,100,250
5,G5,5,0.25,100,250
6,E5,5.25,0.25,100,250
7,C#5,5.5,0.25,100,250
8,E5,5.75,0.25,100,250
9,B-4,6,0.25,100,250
10,G5,6.25,0.25,100,250
11,F#5,6.5,0.25,100,250
12,E5,6.75,0.25,100,250
13,D5,7,0.25,100,250
14,B4,7.25,0.25,100,250
15,F#4,7.5,0.25,100,250
16,A4,7.75,0.25,100,250
17,G4,8,0.25,100,250
18,F#5,8.25,0.25,100,250
19,E5,8.5,0.25,100,250
20,D5,8.75,0.25,100,250
21,C#5,9,0.25,100,250
22,E5,9.25,0.25,100,250
23,G5,9.5,0.25,100,250
24,B4,9.75,0.25,100,250
25,B-4,10,0.25,100,250
26,C#5,10.25,0.25,100,250
27,F#4,10.5,0.25,100,250
28,E4,10.75,0.25,100,250
29,D4,11,0.25,100,250
30,B4,11.25,0.25,100,250
31,C#4,11.5,0.25,100,250
32,C#5,11.75,0.25,100,250
33,D5,12,0.25,100,250
34,F#4,12.25,0.25,100,250
35,B3,12.5,0.25,100,250
36,C#4,12.75,0.25,100,250
37,D4,13,0.25,100,250
38,E4,13.25,0.25,100,250
39,F#4,13.5,0.25,100,250
40,G4,13.75,0.25,100,250
41,A4,14,0.25,100,250
42,D4,14.25,0.25,100,250
43,F#4,14.5,0.25,100,250
44,A4,14.75,0.25,100,250
45,D5,15,0.25,100,250
46,E5,15.25,0.25,100,250
47,F#5,15.5,0.25,100,250
48,A4,15.75,0.25,100,250
49,B4,16,0.25,100,250
50,G4,16.25,0.25,100,250
51,B4,16.5,0.25,100,250
52,D5,16.75,0.25,100,250
53,G5,17,0.25,100,250
54,B4,17.25,0.25,100,250
55,G4,17.5,0.25,100,250
56,E4,17.75,0.25,100,250
57,C#4,18,0.25,100,250
58,E4,18.25,0.25,100,250
59,A4,18.5,0.25,100,250
60,G5,18.75,0.25,100,250
61,F#5,19,0.25,100,250
62,D4,19.25,0.25,100,250
63,G4,19.5,0.25,100,250
64,E5,19.75,0.25,100,250
65,C#5,20,0.25,100,250
66,A4,20.25,0.25,100,250
67,C#5,20.5,0.25,100,250
68,E5,20.75,0.25,100,250
69,A5,21,0.25,100,250
70,C5,21.25,0.25,100,250
71,A4,21.5,0.25,100,250
72,F#4,21.75,0.25,100,250
73,E-4,22,0.25,100,250
74,F#4,22.25,0.25,100,250
75,B4,22.5,0.25,100,250
76,F#5,22.75,0.25,100,250
77,A5,23,0.25,100,250
78,C6,23.25,0.25,100,250
79,B5,23.5,0.25,100,250
80,A5,23.75,0.25,100,250
81,G5,24,0.25,100,250
82,B5,24.25,0.25,100,250
83,G5,24.5,0.25,100,250
84,E5,24.75,0.25,100,250
85,B4,25,0.25,100,250
86,D5,25.25,0.25,100,250
87,C#5,25.5,0.25,100,250
88,B4,25.75,0.25,100,250
89,B-4,26,0.25,100,250
90,G5,26.25,0.25,100,250
91,F#5,26.5,0.25,100,250
92,E4,26.75,0.25,100,250
93,D4,27,0.25,100,250
94,F#4,27.25,0.25,100,250
95,B4,27.5,0.25,100,250
96,D5,27.75,0.25,100,250
97,G#4,28,0.25,100,250
98,F#5,28.25,0.25,100,250
99,E5,28.5,0.25,100,250
100,D4,28.75,0.25,100,250
101,C#4,29,0.25,100,250
102,E4,29.25,0.25,100,250
103,G4,29.5,0.25,100,250
104,B3,29.75,0.25,100,250
105,B-3,30,0.25,100,250
106,F#4,30.25,0.25,100,250
107,C#5,30.5,0.25,100,250
108,E5,30.75,0.25,100,250
109,D5,31,0.25,100,250
110,F#4,31.25,0.25,100,250
111,B3,31.5,0.25,100,250
112,D5,31.75,0.25,100,250
113,C#5,32,0.25,100,250
114,F#5,32.25,0.25,100,250
115,C#5,32.5,0.25,100,250
116,B-4,32.75,0.25,100,250
117,F#4,33,0.25,100,250
118,B-4,33.25,0.25,100,250
119,C#5,33.5,0.25,100,250
120,E4,33.75,0.25,100,250
121,D4,34,0.25,100,250
122,F#5,34.25,0.25,100,250
123,D5,34.5,0.25,100,250
124,B4,34.75,0.25,100,250
125,G#4,35,0.25,100,250
126,B4,35.25,0.25,100,250
127,E5,35.5,0.25,100,250
128,B-4,35.75,0.25,100,250
129,B4,36,0.25,100,250
130,E5,36.25,0.25,100,250
131,F#5,36.5,0.25,100,250
132,C#5,36.75,0.25,100,250
133,D5,37,0.25,100,250
134,B4,37.25,0.25,100,250
135,G#5,37.5,0.25,100,250
136,B4,37.75,0.25,100,250
137,F4,38,0.25,100,250
138,C#5,38.25,0.25,100,250
139,B5,38.5,0.25,100,250
140,G#5,38.75,0.25,100,250
141,A5,39,0.25,100,250
142,C#5,39.25,0.25,100,250
143,F#4,39.5,0.25,100,250
144,A5,39.75,0.25,100,250
145,G#5,40,0.25,100,250
146,C#5,40.25,0.25,100,250
147,F5,40.5,0.25,100,250
148,G#5,40.75,0.25,100,250
149,C#6,41,0.25,100,250
150,E5,41.25,0.25,100,250
151,B-4,41.5,0.25,100,250
152,E5,41.75,0.25,100,250
153,B3,42,0.25,100,250
154,F#4,42.25,0.25,100,250
155,E5,42.5,0.25,100,250
156,C#5,42.75,0.25,100,250
157,D5,43,0.25,100,250
158,F#5,43.25,0.25,100,250
159,B5,43.5,0.25,100,250
160,C#6,43.75,0.25,100,250
161,D6,44,0.25,100,250
162,F5,44.25,0.25,100,250
163,G#4,44.5,0.25,100,250
164,F5,44.75,0.25,100,250
165,C#4,45,0.25,100,250
166,D6,45.25,0.25,100,250
167,F5,45.5,0.25,100,250
168,C#6,45.75,0.25,100,250
169,B5,46,0.25,100,250
170,A5,46.25,0.25,100,250
171,G#5,46.5,0.25,100,250
172,F#5,46.75,0.25,100,250
173,C#5,47,0.25,100,250
174,F#5,47.25,0.25,100,250
175,G#5,47.5,0.25,100,250
176,F5,47.75,0.25,100,250
177,F#5,48,0.25,100,250
178,C#5,48.25,0.25,100,250
179,B-4,48.5,0.25,100,250
180,E5,48.75,0.25,100,250
181,D5,49,0.25,100,250
182,F4,49.25,0.25,100,250
183,G#4,49.5,0.25,100,250
184,B4,49.75,0.25,100,250
185,B-4,50,0.25,100,250
186,F#4,50.25,0.25,100,250
187,B-4,50.5,0.25,100,250
188,C#5,50.75,0.25,100,250
189,F#5,51,0.75,100,250
190,F#5,51.75,0.25,100,250
191,B4,52,0.25,100,250
192,D5,52.25,0.25,100,250
193,F#5,52.5,0.25,100,250
194,B5,52.75,0.25,100,250
195,G5,53,0.25,100,250
196,E5,53.25,0.25,100,250
197,C#5,53.5,0.25,100,250
198,E5,53.75,0.25,100,250
199,B-4,54,0.25,100,250
200,G5,54.25,0.25,100,250
201,F#5,54.5,0.25,100,250
202,E5,54.75,0.25,100,250
203,D5,55,0.25,100,250
204,B4,55.25,0.25,100,250
205,F#4,55.5,0.25,100,250
206,A4,55.75,0.25,100,250
207,G4,56,0.25,100,250
208,F#5,56.25,0.25,100,250
209,E5,56.5,0.25,100,250
210,D5,56.75,0.25,100,250
211,C#5,57,0.25,100,250
212,E5,57.25,0.25,100,250
213,G5,57.5,0.25,100,250
214,B4,57.75,0.25,100,250
215,B-4,58,0.25,100,250
216,C#5,58.25,0.25,100,250
217,F#4,58.5,0.25,100,250
218,E4,58.75,0.25,100,250
219,D4,59,0.25,100,250
220,B4,59.25,0.25,100,250
221,C#4,59.5,0.25,100,250
222,C#5,59.75,0.25,100,250
223,D5,60,0.25,100,250
224,F#4,60.25,0.25,100,250
225,B3,60.5,0.25,100,250
226,C#4,60.75,0.25,100,250
227,D4,61,0.25,100,250
228,E4,61.25,0.25,100,250
229,F#4,61.5,0.25,100,250
230,G4,61.75,0.25,100,250
231,A4,62,0.25,100,250
232,D4,62.25,0.25,100,250
233,F#4,62.5,0.25,100,250
234,A4,62.75,0.25,100,250
235,D5,63,0.25,100,250
236,E5,63.25,0.25,100,250
237,F#5,63.5,0.25,100,250
238,A4,63.75,0.25,100,250
239,B4,64,0.25,100,250
240,G4,64.25,0.25,100,250
241,B4,64.5,0.25,100,250
242,D5,64.75,0.25,100,250
243,G5,65,0.25,100,250
244,B4,65.25,0.25,100,250
245,G4,65.5,0.25,100,250
246,E4,65.75,0.25,100,250
247,C#4,66,0.25,100,250
248,E4,66.25,0.25,100,250
249,A4,66.5,0.25,100,250
250,G5,66.75,0.25,100,250
251,F#5,67,0.25,100,250
252,D4,67.25,0.25,100,250
253,G4,67.5,0.25,100,250
254,E5,67.75,0.25,100,250
255,C#5,68,0.25,100,250
256,A4,68.25,0.25,100,250
257,C#5,68.5,0.25,100,250
258,E5,68.75,0.25,100,250
259,A5,69,0.25,100,250
260,C5,69.25,0.25,100,250
261,A4,69.5,0.25,100,250
262,F#4,69.75,0.25,100,250
263,E-4,70,0.25,100,250
264,F#4,70.25,0.25,100,250
265,B4,70.5,0.25,100,250
266,F#5,70.75,0.25,100,250
267,A5,71,0.25,100,250
268,C6,71.25,0.25,100,250
269,B5,71.5,0.25,100,250
270,A5,71.75,0.25,100,250
271,G5,72,0.25,100,250
272,B5,72.25,0.25,100,250
273,G5,72.5,0.25,100,250
274,E5,72.75,0.25,100,250
275,B4,73,0.25,100,250
276,D5,73.25,0.25,100,250
277,C#5,73.5,0.25,100,250
278,B4,73.75,0.25,100,250
279,B-4,74,0.25,100,250
280,G5,74.25,0.25,100,250
281,F#5,74.5,0.25,100,250
282,E4,74.75,0.25,100,250
283,D4,75,0.25,100,250
284,F#4,75.25,0.25,100,250
285,B4,75.5,0.25,100,250
286,D5,75.75,0.25,100,250
287,G#4,76,0.25,100,250
288,F#5,76.25,0.25,100,250
289,E5,76.5,0.25,100,250
290,D4,76.75,0.25,100,250
291,C#4,77,0.25,100,250
292,E4,77.25,0.25,100,250
293,G4,77.5,0.25,100,250
294,B3,77.75,0.25,100,250
295,B-3,78,0.25,100,250
296,F#4,78.25,0.25,100,250
297,C#5,78.5,0.25,100,250
298,E5,78.75,0.25,100,250
299,D5,79,0.25,100,250
300,F#4,79.25,0.25,100,250
301,B3,79.5,0.25,100,250
302,D5,79.75,0.25,100,250
303,C#5,80,0.25,100,250
304,F#5,80.25,0.25,100,250
305,C#5,80.5,0.25,100,250
306,B-4,80.75,0.25,100,250
307,F#4,81,0.25,100,250
308,B-4,81.25,0.25,100,250
309,C#5,81.5,0.25,100,250
310,E4,81.75,0.25,100,250
311,D4,82,0.25,100,250
312,F#5,82.25,0.25,100,250
313,D5,82.5,0.25,100,250
314,B4,82.75,0.25,100,250
315,G#4,83,0.25,100,250
316,B4,83.25,0.25,100,250
317,E5,83.5,0.25,100,250
318,B-4,83.75,0.25,100,250
319,B4,84,0.25,100,250
320,E5,84.25,0.25,100,250
321,F#5,84.5,0.25,100,250
322,C#5,84.75,0.25,100,250
323,D5,85,0.25,100,250
324,B4,85.25,0.25,100,250
325,G#5,85.5,0.25,100,250
326,B4,85.75,0.25,100,250
327,F4,86,0.25,100,250
328,C#5,86.25,0.25,100,250
329,B5,86.5,0.25,100,250
330,G#5,86.75,0.25,100,250
331,A5,87,0.25,100,250
332,C#5,87.25,0.25,100,250
333,F#4,87.5,0.25,100,250
334,A5,87.75,0.25,100,250
335,G#5,88,0.25,100,250
336,C#5,88.25,0.25,100,250
337,F5,88.5,0.25,100,250
338,G#5,88.75,0.25,100,250
339,C#6,89,0.25,100,250
340,E5,89.25,0.25,100,250
341,B-4,89.5,0.25,100,250
342,E5,89.75,0.25,100,250
343,B3,90,0.25,100,250
344,F#4,90.25,0.25,100,250
345,E5,90.5,0.25,100,250
346,C#5,90.75,0.25,100,250
347,D5,91,0.25,100,250
348,F#5,91.25,0.25,100,250
349,B5,91.5,0.25,100,250
350,C#6,91.75,0.25,100,250
351,D6,92,0.25,100,250
352,F5,92.25,0.25,100,250
353,G#4,92.5,0.25,100,250
354,F5,92.75,0.25,100,250
355,C#4,93,0.25,100,250
356,D6,93.25,0.25,100,250
357,F5,93.5,0.25,100,250
358,C#6,93.75,0.25,100,250
359,B5,94,0.25,100,250
360,A5,94.25,0.25,100,250
361,G#5,94.5,0.25,100,250
362,F#5,94.75,0.25,100,250
363,C#5,95,0.25,100,250
364,F#5,95.25,0.25,100,250
365,G#5,95.5,0.25,100,250
366,F5,95.75,0.25,100,250
367,F#5,96,0.25,100,250
368,C#5,96.25,0.25,100,250
369,B-4,96.5,0.25,100,250
370,E5,96.75,0.25,100,250
371,D5,97,0.25,100,250
372,F4,97.25,0.25,100,250
373,G#4,97.5,0.25,100,250
374,B4,97.75,0.25,100,250
375,B-4,98,0.25,100,250
376,F#4,98.25,0.25,100,250
377,B-4,98.5,0.25,100,250
378,C#5,98.75,0.25,100,250
379,F#5,99,0.75,100,250
380,C#5,99.75,0.25,100,250
381,C#5,100,0.25,100,250
382,G5,100.25,0.25,100,250
383,E5,100.5,0.25,100,250
384,C#5,100.75,0.25,100,250
385,B-4,101,0.25,100,250
386,F#4,101.25,0.25,100,250
387,C#5,101.5,0.25,100,250
388,E4,101.75,0.25,100,250
389,D4,102,0.25,100,250
390,F#4,102.25,0.25,100,250
391,B4,102.5,0.25,100,250
392,D4,102.75,0.25,100,250
393,C#4,103,0.25,100,250
394,B3,103.25,0.25,100,250
395,B-3,103.5,0.25,100,250
396,E4,103.75,0.25,100,250
397,D4,104,0.25,100,250
398,B3,104.25,0.25,100,250
399,D4,104.5,0.25,100,250
400,F#4,104.75,0.25,100,250
401,B4,105,0.25,100,250
402,G4,105.25,0.25,100,250
403,F#4,105.5,0.25,100,250
404,E4,105.75,0.25,100,250
405,E-4,106,0.25,100,250
406,F#4,106.25,0.25,100,250
407,A4,106.5,0.25,100,250
408,C5,106.75,0.25,100,250
409,B4,107,0.25,100,250
410,A4,107.25,0.25,100,250
411,F#5,107.5,0.25,100,250
412,A4,107.75,0.25,100,250
413,G4,108,0.25,100,250
414,B4,108.25,0.25,100,250
415,E5,108.5,0.25,100,250
416,G5,108.75,0.25,100,250
417,F#5,109,0.25,100,250
418,A5,109.25,0.25,100,250
419,E-5,109.5,0.25,100,250
420,E5,109.75,0.25,100,250
421,B4,110,0.25,100,250
422,E5,110.25,0.25,100,250
423,E-5,110.5,0.25,100,250
424,F#5,110.75,0.25,100,250
425,B5,111,0.25,100,250
426,F#5,111.25,0.25,100,250
427,E-5,111.5,0.25,100,250
428,A4,111.75,0.25,100,250
429,G#4,112,0.25,100,250
430,B4,112.25,0.25,100,250
431,E5,112.5,0.25,100,250
432,G#5,112.75,0.25,100,250
433,B5,113,0.25,100,250
434,D6,113.25,0.25,100,250
435,C6,113.5,0.25,100,250
436,B5,113.75,0.25,100,250
437,C6,114,0.25,100,250
438,A5,114.25,0.25,100,250
439,E5,114.5,0.25,100,250
440,C5,114.75,0.25,100,250
441,A4,115,0.25,100,250
442,G5,115.25,0.25,100,250
443,F#5,115.5,0.25,100,250
444,E5,115.75,0.25,100,250
445,E-5,116,0.25,100,250
446,F#5,116.25,0.25,100,250
447,A5,116.5,0.25,100,250
448,C6,116.75,0.25,100,250
449,B5,117,0.25,100,250
450,A5,117.25,0.25,100,250
451,E-5,117.5,0.25,100,250
452,A5,117.75,0.25,100,250
453,G5,118,0.25,100,250
454,B5,118.25,0.25,100,250
455,G5,118.5,0.25,100,250
456,E5,118.75,0.25,100,250
457,B4,119,0.25,100,250
458,G5,119.25,0.25,100,250
459,D6,119.5,0.25,100,250
460,F5,119.75,0.25,100,250
461,E5,120,0.25,100,250
462,B4,120.25,0.25,100,250
463,C5,120.5,0.25,100,250
464,E5,120.75,0.25,100,250
465,B-4,121,0.25,100,250
466,B4,121.25,0.25,100,250
467,E-4,121.5,0.25,100,250
468,E4,121.75,0.25,100,250
469,G3,122,0.25,100,250
470,E4,122.25,0.25,100,250
471,B4,122.5,0.25,100,250
472,G5,122.75,0.25,100,250
473,F#5,123,0.25,100,250
474,E5,123.25,0.25,100,250
475,B4,123.5,0.25,100,250
476,E-5,123.75,0.25,100,250
477,E4,124,0.25,100,250
478,G4,124.25,0.25,100,250
479,B4,124.5,0.25,100,250
480,E5,124.75,0.25,100,250
481,B4,125,0.25,100,250
482,G4,125.25,0.25,100,250
483,E4,125.5,0.25,100,250
484,G4,125.75,0.25,100,250
485,C#4,126,0.25,100,250
486,A4,126.25,0.25,100,250
487,E5,126.5,0.25,100,250
488,G4,126.75,0.25,100,250
489,F#4,127,0.25,100,250
490,A5,127.25,0.25,100,250
491,E4,127.5,0.25,100,250
492,G5,127.75,0.25,100,250
493,D4,128,0.25,100,250
494,G5,128.25,0.25,100,250
495,F#5,128.5,0.25,100,250
496,E5,128.75,0.25,100,250
497,D5,129,0.25,100,250
498,F#5,129.25,0.25,100,250
499,B-5,129.5,0.25,100,250
500,B5,129.75,0.25,100,250
501,E5,130,0.25,100,250
502,C#5,130.25,0.25,100,250
503,B-4,130.5,0.25,100,250
504,C#5,130.75,0.25,100,250
505,D4,131,0.25,100,250
506,F#5,131.25,0.25,100,250
507,C#4,131.5,0.25,100,250
508,E5,131.75,0.25,100,250
509,B3,132,0.25,100,250
510,E5,132.25,0.25,100,250
511,D5,132.5,0.25,100,250
512,C#5,132.75,0.25,100,250
513,B4,133,0.25,100,250
514,D5,133.25,0.25,100,250
515,F#5,133.5,0.25,100,250
516,G5,133.75,0.25,100,250
517,C5,134,0.25,100,250
518,A4,134.25,0.25,100,250
519,F#4,134.5,0.25,100,250
520,A4,134.75,0.25,100,250
521,D4,135,0.25,100,250
522,F#4,135.25,0.25,100,250
523,A4,135.5,0.25,100,250
524,C5,135.75,0.25,100,250
525,F#5,136,0.25,100,250
526,B4,136.25,0.25,100,250
527,E-4,136.5,0.25,100,250
528,F#4,136.75,0.25,100,250
529,B4,137,0.25,100,250
530,E-5,137.25,0.25,100,250
531,F#5,137.5,0.25,100,250
532,A5,137.75,0.25,100,250
533,G5,138,0.25,100,250
534,E5,138.25,0.25,100,250
535,B4,138.5,0.25,100,250
536,D5,138.75,0.25,100,250
537,C5,139,0.25,100,250
538,E5,139.25,0.25,100,250
539,G5,139.5,0.25,100,250
540,B4,139.75,0.25,100,250
541,B-4,140,0.25,100,250
542,G5,140.25,0.25,100,250
543,F#5,140.5,0.25,100,250
544,E4,140.75,0.25,100,250
545,D4,141,0.25,100,250
546,B5,141.25,0.25,100,250
547,B-5,141.5,0.25,100,250
548,B5,141.75,0.25,100,250
549,F5,142,0.25,100,250
550,F#5,142.25,0.25,100,250
551,B-4,142.5,0.25,100,250
552,B4,142.75,0.25,100,250
553,F#4,143,0.25,100,250
554,D5,143.25,0.25,100,250
555,C#5,143.5,0.25,100,250
556,B-4,143.75,0.25,100,250
557,B4,144,0.25,100,250
558,B3,144.25,0.25,100,250
559,D4,144.5,0.25,100,250
560,F#4,144.75,0.25,100,250
561,B4,145,0.25,100,250
562,D5,145.25,0.25,100,250
563,F#5,145.5,0.25,100,250
564,B-5,145.75,0.25,100,250
565,B5,146,0.25,100,250
566,F#5,146.25,0.25,100,250
567,D5,146.5,0.25,100,250
568,B4,146.75,0.25,100,250
569,B3,147,0.75,100,250
570,C#5,147.75,0.25,100,250
571,C#5,148,0.25,100,250
572,G5,148.25,0.25,100,250
573,E5,148.5,0.25,100,250
574,C#5,148.75,0.25,100,250
575,B-4,149,0.25,100,250
576,F#4,149.25,0.25,100,250
577,C#5,149.5,0.25,100,250
578,E4,149.75,0.25,100,250
579,D4,150,0.25,100,250
580,F#4,150.25,0.25,100,250
581,B4,150.5,0.25,100,250
582,D4,150.75,0.25,100,250
583,C#4,151,0.25,100,250
584,B3,151.25,0.25,100,250
585,B-3,151.5,0.25,100,250
586,E4,151.75,0.25,100,250
587,D4,152,0.25,100,250
588,B3,152.25,0.25,100,250
589,D4,152.5,0.25,100,250
590,F#4,152.75,0.25,100,250
591,B4,153,0.25,100,250
592,G4,153.25,0.25,100,250
593,F#4,153.5,0.25,100,250
594,E4,153.75,0.25,100,250
595,E-4,154,0.25,100,250
596,F#4,154.25,0.25,100,250
597,A4,154.5,0.25,100,250
598,C5,154.75,0.25,100,250
599,B4,155,0.25,100,250
600,A4,155.25,0.25,100,250
601,F#5,155.5,0.25,100,250
602,A4,155.75,0.25,100,250
603,G4,156,0.25,100,250
604,B4,156.25,0.25,100,250
605,E5,156.5,0.25,100,250
606,G5,156.75,0.25,100,250
607,F#5,157,0.25,100,250
608,A5,157.25,0.25,100,250
609,E-5,157.5,0.25,100,250
610,E5,157.75,0.25,100,250
611,B4,158,0.25,100,250
612,E5,158.25,0.25,100,250
613,E-5,158.5,0.25,100,250
614,F#5,158.75,0.25,100,250
615,B5,159,0.25,100,250
616,F#5,159.25,0.25,100,250
617,E-5,159.5,0.25,100,250
618,A4,159.75,0.25,100,250
619,G#4,160,0.25,100,250
620,B4,160.25,0.25,100,250
621,E5,160.5,0.25,100,250
622,G#5,160.75,0.25,100,250
623,B5,161,0.25,100,250
624,D6,161.25,0.25,100,250
625,C6,161.5,0.25,100,250
626,B5,161.75,0.25,100,250
627,C6,162,0.25,100,250
628,A5,162.25,0.25,100,250
629,E5,162.5,0.25,100,250
630,C5,162.75,0.25,100,250
631,A4,163,0.25,100,250
632,G5,163.25,0.25,100,250
633,F#5,163.5,0.25,100,250
634,E5,163.75,0.25,100,250
635,E-5,164,0.25,100,250
636,F#5,164.25,0.25,100,250
637,A5,164.5,0.25,100,250
638,C6,164.75,0.25,100,250
639,B5,165,0.25,100,250
640,A5,165.25,0.25,100,250
641,E-5,165.5,0.25,100,250
642,A5,165.75,0.25,100,250
643,G5,166,0.25,100,250
644,B5,166.25,0.25,100,250
645,G5,166.5,0.25,100,250
646,E5,166.75,0.25,100,250
647,B4,167,0.25,100,250
648,G5,167.25,0.25,100,250
649,D6,167.5,0.25,100,250
650,F5,167.75,0.25,100,250
651,E5,168,0.25,100,250
652,B4,168.25,0.25,100,250
653,C5,168.5,0.25,100,250
654,E5,168.75,0.25,100,250
655,B-4,169,0.25,100,250
656,B4,169.25,0.25,100,250
657,E-4,169.5,0.25,100,250
658,E4,169.75,0.25,100,250
659,G3,170,0.25,100,250
660,E4,170.25,0.25,100,250
661,B4,170.5,0.25,100,250
662,G5,170.75,0.25,100,250
663,F#5,171,0.25,100,250
664,E5,171.25,0.25,100,250
665,B4,171.5,0.25,100,250
666,E-5,171.75,0.25,100,250
667,E4,172,0.25,100,250
668,G4,172.25,0.25,100,250
669,B4,172.5,0.25,100,250
670,E5,172.75,0.25,100,250
671,B4,173,0.25,100,250
672,G4,173.25,0.25,100,250
673,E4,173.5,0.25,100,250
674,G4,173.75,0.25,100,250
675,C#4,174,0.25,100,250
676,A4,174.25,0.25,100,250
677,E5,174.5,0.25,100,250
678,G4,174.75,0.25,100,250
679,F#4,175,0.25,100,250
680,A5,175.25,0.25,100,250
681,E4,175.5,0.25,100,250
682,G5,175.75,0.25,100,250
683,D4,176,0.25,100,250
684,G5,176.25,0.25,100,250
685,F#5,176.5,0.25,100,250
686,E5,176.75,0.25,100,250
687,D5,177,0.25,100,250
688,F#5,177.25,0.25,100,250
689,B-5,177.5,0.25,100,250
690,B5,177.75,0.25,100,250
691,E5,178,0.25,100,250
692,C#5,178.25,0.25,100,250
693,B-4,178.5,0.25,100,250
694,C#5,178.75,0.25,100,250
695,D4,179,0.25,100,250
696,F#5,179.25,0.25,100,250
697,C#4,179.5,0.25,100,250
698,E5,179.75,0.25,100,250
699,B3,180,0.25,100,250
700,E5,180.25,0.25,100,250
701,D5,180.5,0.25,100,250
702,C#5,180.75,0.25,100,250
703,B4,181,0.25,100,250
704,D5,181.25,0.25,100,250
705,F#5,181.5,0.25,100,250
706,G5,181.75,0.25,100,250
707,C5,182,0.25,100,250
708,A4,182.25,0.25,100,250
709,F#4,182.5,0.25,100,250
710,A4,182.75,0.25,100,250
711,D4,183,0.25,100,250
712,F#4,183.25,0.25,100,250
713,A4,183.5,0.25,100,250
714,C5,183.75,0.25,100,250
715,F#5,184,0.25,100,250
716,B4,184.25,0.25,100,250
717,E-4,184.5,0.25,100,250
718,F#4,184.75,0.25,100,250
719,B4,185,0.25,100,250
720,E-5,185.25,0.25,100,250
721,F#5,185.5,0.25,100,250
722,A5,185.75,0.25,100,250
723,G5,186,0.25,100,250
724,E5,186.25,0.25,100,250
725,B4,186.5,0.25,100,250
726,D5,186.75,0.25,100,250
727,C5,187,0.25,100,250
728,E5,187.25,0.25,100,250
729,G5,187.5,0.25,100,250
730,B4,187.75,0.25,100,250
731,B-4,188,0.25,100,250
732,G5,188.25,0.25,100,250
733,F#5,188.5,0.25,100,250
734,E4,188.75,0.25,100,250
735,D4,189,0.25,100,250
736,B5,189.25,0.25,100,250
737,B-5,189.5,0.25,100,250
738,B5,189.75,0.25,100,250
739,F5,190,0.25,100,250
740,F#5,190.25,0.25,100,250
741,B-4,190.5,0.25,100,250
742,B4,190.75,0.25,100,250
743,F#4,191,0.25,100,250
744,D5,191.25,0.25,100,250
745,C#5,191.5,0.25,100,250
746,B-4,191.75,0.25,100,250
747,B4,192,0.25,100,250
748,B3,192.25,0.25,100,250
749,D4,192.5,0.25,100,250
750,F#4,192.75,0.25,100,250
751,B4,193,0.25,100,250
752,D5,193.25,0.25,100,250
753,F#5,193.5,0.25,100,250
754,B-5,193.75,0.25,100,250
755,B5,194,0.25,100,250
756,F#5,194.25,0.25,100,250
757,D5,194.5,0.25,100,250
758,B4,194.75,0.25,100,250
759,B3,195,0.75,100,250
